<?xml version="1.0" encoding="UTF-8"?>
<svg id="Layer_1" xmlns="http://www.w3.org/2000/svg" version="1.1" viewBox="0 0 135 135" width="36px" height="36px">
  <!-- Generator: Adobe Illustrator 29.6.1, SVG Export Plug-In . SVG Version: 2.1.1 Build 9)  -->
  <defs>
    <style>
      .st0 {
        fill: #fff;
      }
    </style>
  </defs>
  <path class="st0" d="M129.1,57.6c-5.6.6-13.1,2.6-16.5,7,0,0,.1.1.2.2,4.1-1.8,8.2-3.7,12.7-4.5-3.7,2.8-7.9,5.1-12.6,6.6-8.2,2.7-14.3-3.7-13.2-10.4.1-.8.6-.9,1.2-.3,1,.9,2.2,1.4,3.4,1.9,2.7,1,4.9,2.6,6.3,5,0,.2.2.3.6.8.2-.3.3-.6.5-.7,4.1-4.4,10.1-6.3,16.3-6.9,1.6-.2.9-1.6.1-2.2-.7-.5-1.4-1-2.2-1.4-10.6-5.5-22.2-10.3-34.6-11.1-7.6-.4-15,.4-22.3,2-.4,0-.9,0-1.3,0-7.6-2.5-16-5-24-2.8-1.3.4-1.9,1.4-1.6,2.6.6,2.4,2.5,4.2,1.4,6.8-1.4,3.2-2.6,6.5-3.7,9.8,0,0,.1,0,.2,0,5.3-4.6,11.1-8.4,17.4-11.7-3.1,2.5-6.7,4.6-9.9,7.1-5.3,4-9.9,8.5-14.1,13.4-3.1,3.9-7.6,6.1-13,5.9-3,0-6.1,0-9.1.3-2,.1-3.9.6-5.6,1.7-2.4,1.4-2.5,2.7-.6,4.6,1.7,1.7,3.5,3.5,5.1,5.2,4.4,4.8,8,10.1,11.2,15.5,1.2,2,2.2,4,3.4,6,.8,1.4,2.3,1.6,3.5.4.6-.6,1.1-1.3,1.5-2.1,2-3.8,2.7-7.8,2.9-11.9,0-2.4,0-4.8,0-7.2,0-1.4.7-2.6,1.9-3.6,1.4-1.2,3-1.8,4.8-2.3,9.5-2.6,19.1.8,28.7,0,5.4-.5,11-.2,16.1-2,3.3-1.3,6.7-2.2,9.9-3.6-.4-.1-.8-.2-1.2-.3-1.6-.3-3.2-.8-4.8-.4-3.3.7-6.3,2.2-9.5,3.2-8.8,2.6-17.9,0-26.8-.8-7.6-.9-14.9,1.2-21.5,4.5-.9.4-1.3,0-1.1-.8.5-3,2.7-5.4,5.1-7.4,11.6-10,25.2-19.1,41-22.8,2.5-.5,5-1.1,7.5,0,5.3-5.2,11-5.7,13.7-4.9-1.7.5-3.6.9-5.3,1.6-6.9,2.6-10.8,9.5-9,16,0,.2.3.5.5.5,1.1.3,2.2.5,3.4.8-.9-3.1-1.1-6.2.3-9.3,1.3-2.9,4.9-6,7.5-6.5-8.3,5.3-9.2,15.5-1.5,22,2.4,2.1,5.4,2.8,8.8,2.3,4.3-.7,8.3-2.3,11.9-4.4-5.2,1.4-9.8,2.3-14.6-.8-2.6-1.6-3.6-4-3.8-6.7-.6-5.3,3.3-9.1,8.1-11.4,0,0,0,0,.1.1-4.8,3.1-6.9,9-4.4,13.7,2.4,4.6,8.7,5.7,13.8,4.9.3,0,.5,0,.8,0,3-1,5.8-2.4,8.6-3.6,2.5-1.1,4.9-2.4,6.9-4.1.7-.6,1.4-1.4,1.9-2.1.7-1-.5-1.4-1.5-1.3ZM110.6,57.8c-3.5,0-3.5-4.8,0-4.9,3.6.1,3.5,4.7,0,4.9ZM106.6,53.9c1.5-3.9,8.4-3.6,8.7,1.1-1.6-2.9-3.5-3.9-5.9-3-2,.7-3,2.7-2.4,4.6.7,2,2.8,2.9,5.7,2.3-1,1-3.1.7-4.3,0-1.9-1.1-2.7-3.1-1.9-4.9ZM28.1,88c-3.4,3.9-1.9,9-2.2,13.6-2-4.7-4.1-9.2-6.7-13.7-1.3-2.4-3.3-4.2-5.8-5.6-1.4-.8-2.7-1.6-4.1-2.4,1.8.4,3.6.9,5.4,1.3,1.9.5,3.7.2,5.5-.5,1.4-.6,2.8-1,4.2-1.5.2,0,.4,0,.7-.1-.9.6-1.8,1.1-2.6,1.6-2.4,1.8-2.7,4.3-1.2,6.3,1.4-1.2,2.7-2.1,4.3-3,0,0,0,0,.1.1-1.6,2-3.5,4.3-2.8,6.9,0,.2.3.5.5.5.2,0,.5-.2.7-.4,1.1-1.4,2.4-2.7,3.9-3.7,0,0,0,.2,0,.2Z"/>
  <path class="st0" d="M74.4,76.4c5.4-.8,10.5-2.5,15.6-4.7-2.5-1.4-4.1-3.2-5-5.5,0-.2-.4-.4-.7-.5-2.8-.8-5.3-.3-7.8.9-3.7,1.9-7.4,4.3-9.6,7.7-2,3.6,5.6,2.4,7.6,2.1Z"/>
  <path class="st0" d="M84.2,82.2c.4,1.6,0,3.1-.3,4.6-.4,1.4.4,2.5,2,2.5,7.6.3,10.9-8.5,12.2-14-4.8,1.8-9.5,3.5-14.3,5.3.1.5.3,1,.4,1.5Z"/>
  <path class="st0" d="M58.5,83.1c2.4,4.6-.2,8.6-2.8,12.6-.2.3-.2.7,0,.9.2.2.7.3,1,.2,7.3-2.2,10.8-8.6,14.6-14.1-4.4-.5-8.6-.2-12.8.5Z"/>
  <path class="st0" d="M42.8,81.9c.9,1.4.9,2.9.2,4.3-.2.5-.5,1.1,0,1.5.6.6,1.7.2,2.4,0,2.8-1.5,5.7-3.1,7.5-5.6-3.4-1.3-6.7-.9-10.1-.1Z"/>
  <path class="st0" d="M69.3,57.7c-.1-2.9-4.8-2.9-4.9,0,.1,3,4.8,2.9,4.9,0Z"/>
  <path class="st0" d="M68.5,64.6c2.7,0,2.6-3.4,0-3.5-2.4,0-2.6,3.4,0,3.5Z"/>
  <path class="st0" d="M56.5,63.4c-2.1,0-2.2,2.9-.1,3,2.3,0,2.3-2.9.1-3Z"/>
  <path class="st0" d="M49,70.3c2.2,0,2.4-2.7.2-3-2.2,0-2.4,2.8-.2,3Z"/>
  <path class="st0" d="M74.5,55.6c-2.1,0-2.1,2.8,0,2.9,2.1,0,2-2.8,0-2.9Z"/>
  <path class="st0" d="M80.6,54.4c0-1.8-3.1-1.8-3.1,0,0,1.8,3.1,1.8,3.1,0Z"/>
  <path class="st0" d="M61.6,69.6c0,1.9,3,1.7,3.1,0,0-1.8-3-1.9-3.1,0Z"/>
  <path class="st0" d="M76.7,62.4c1.9,0,1.8-2.4,0-2.5-1.9,0-2,2.5,0,2.5Z"/>
  <path class="st0" d="M42.6,71.7c0,1.6,2.6,1.5,2.6,0,0-1.5-2.6-1.5-2.6,0Z"/>
  <path class="st0" d="M54.1,70.6c0,1.5,2.4,1.6,2.4,0,0-1.5-2.3-1.6-2.4,0Z"/>
  <path class="st0" d="M63.3,62.7c-1.6,0-1.7,2.1,0,2.2,1.7,0,1.7-2.1,0-2.2Z"/>
  <path class="st0" d="M60.1,61.3c1.4,0,1.3-1.9,0-1.9-1.2,0-1.3,1.9,0,1.9Z"/>
  <path class="st0" d="M37.8,74.6c0,1.1,2,1.2,2,0,0-1.3-1.9-1.3-2,0Z"/>
  <path class="st0" d="M35.5,76.9c1.3,0,1.3-1.7,0-1.8-1.3,0-1.2,1.8,0,1.8Z"/>
  <path class="st0" d="M110.7,54.1c-1.9,0-2.1,2.5,0,2.5,1.9,0,1.9-2.4,0-2.5Z"/>
</svg>